<svg height="560pt" preserveAspectRatio="xMidYMid meet" viewBox="0 0 560 560" width="560pt" xmlns="http://www.w3.org/2000/svg"><path d="m2504 4752c-44-53-84-101-90-107-6-5-15-17-20-26s-26-36-46-60c-21-24-59-71-85-104-50-63-66-82-98-120-18-22-20-39-20-170 0-80-3-145-7-145s-7 115-7 256-2 259-5 261c-2 3-21 9-40 14-20 5-53 14-73 19-21 6-49 13-63 16s-38 9-55 15c-66 21-251 69-267 69-10 0-18 5-18 11 0 5-4 8-8 5-7-4-92 16-132 31-8 4-19 5-23 4-4 0-16 3-25 8-10 5-23 7-28 3-6-4-48-54-94-112-47-58-87-107-90-110s-19-23-35-45c-17-22-33-42-36-45s-39-47-80-97l-74-93v-1257-1257l30-8c17-4 73-20 125-34s118-32 145-39c167-46 213-57 234-61 14-3 29-8 34-11 7-4 94-27 151-39 22-4 28 2 106 101 66 84 82 104 95 119 6 6 39 47 74 91s68 82 72 83c5 2 9 8 9 13 0 8 7 17 55 70 12 12 15 45 15 138 0 67 3 120 8 117 4-2 7-212 7-466s2-465 5-470 32-16 65-25 94-25 135-36 86-23 99-25c14-3 28-7 33-10 4-3 16-7 25-9 10-1 45-10 78-19s67-18 75-20 93-25 189-51 179-48 185-49 27-7 46-14c19-6 46-13 60-16 14-2 38-9 53-15s31-10 35-10c4 1 9 0 12-1s12-3 20-5 83-22 165-45c83-23 191-52 240-65 50-13 191-51 315-85 124-33 232-63 240-64 13-3 53-14 139-37 11-3 218 241 412 488l40 51v327c0 180-3 330-6 333s-11 7-18 8c-7 2-37 10-67 19-57 17-60 17-125 33-79 19-228 61-232 65-3 4 101 141 134 175 16 17 14-31 16 433l2 396-85 23c-47 12-132 36-190 52s-116 31-130 34-45 11-70 18c-47 15-124 35-150 40-8 2-22 6-30 9-8 4-26 9-40 12-14 2-50 12-80 20-30 9-64 18-75 19-11 2-27 6-35 9s-46 15-85 26l-70 20 5 96c3 53 2 104-1 113-4 9-5 20-2 24 8 14 8 448 0 448-4 0-4 7 1 16s6 33 2 55c-4 21-5 40-3 43 5 4 6 201 2 222-1 5-1 14 0 19 3 19 1 210-2 230-4 18-27 29-82 40-11 2-87 22-170 45-82 22-157 43-165 45-8 1-55 14-105 28-49 14-103 28-120 32-16 5-34 9-40 11-130 35-174 47-191 50s-38-16-100-94zm-358-777c0-19-4-35-8-35s-8 16-8 35 4 35 8 35 8-16 8-35zm-1-159c0-63-4-118-8-122s-7 47-7 114 4 122 8 122 7-51 7-114z" transform="matrix(.1 0 0 -.1 0 560)"/></svg>